<svg width="80" height="97" viewBox="0 0 80 97" fill="none" xmlns="http://www.w3.org/2000/svg">
<path d="M9.8335 0.000609566L6.88596 0.635926L8.43639 11.3808C7.55995 11.5476 6.68418 11.7196 5.80911 11.8969L4.72777 4.40191L1.78023 5.03661L2.85941 12.5123C1.90548 12.7176 0.952329 12.9284 0 13.1446L0.547405 16.7399C1.49988 16.5233 2.44254 16.3153 3.37888 16.1133L4.55218 24.2442L7.49988 23.6095L6.32925 15.4969C7.21121 15.3181 8.08686 15.1464 8.95619 14.9808L10.5819 26.2467L13.5297 25.6116L11.9172 14.4392C13.3278 14.1917 14.7217 13.9642 16.1042 13.7525C18.6883 23.1776 21.8738 34.0686 27.2346 41.0684C28.6847 47.245 28.8743 50.7006 32.6256 59.2337C28.8743 66.9542 26.2138 79.9572 24.7521 91.9443L16.7705 93.1633V96.2109H28.8743C31.5348 86.4587 39.5164 66.9542 39.5164 66.9542C39.5164 66.9542 47.498 86.4587 50.1586 96.2109H62.2623V93.1633L54.2807 91.9443C52.8191 79.9572 50.1586 66.9542 45.8352 59.2337C50.1586 50.7006 49.8551 47.1278 51.7931 41.0749C57.1558 34.0753 60.3434 23.1806 62.9286 13.7529C64.3111 13.9642 65.7051 14.1917 67.1157 14.4396L65.5034 25.612L68.4512 26.2467L70.077 14.9808C70.9467 15.1464 71.822 15.3181 72.7043 15.4969L71.5333 23.6095L74.481 24.2444L75.6543 16.1135C76.5905 16.3153 77.5333 16.5233 78.4858 16.7399L79.0332 13.1446C78.0721 12.9262 77.1198 12.7159 76.1739 12.5121L77.2531 5.03621L74.3054 4.4013L73.2239 11.8963C72.3421 11.7175 71.4663 11.5454 70.5966 11.3802L72.1471 0.635316L69.1995 0L67.6355 10.8392C57.8046 9.11345 48.659 8.2459 39.5164 8.2459C30.3742 8.2459 21.2281 9.11345 11.3976 10.8398L9.8335 0.000609566ZM39.5164 11.8908C45.4245 11.8908 51.3342 12.2626 57.4454 13.0007C55.1038 20.0829 51.0512 27.9346 46.9358 33.7175C45.2188 36.7366 42.5677 38.7135 39.5164 38.7135C36.4651 38.7135 33.8139 36.7366 32.0969 33.7175C27.9817 27.9346 23.929 20.0827 21.5874 13.0007C27.6983 12.2626 33.608 11.8908 39.5164 11.8908ZM39.5164 15.9583C36.0519 15.9583 33.0314 20.0705 33.0314 25.5073C33.0314 30.9442 36.0519 35.0564 39.5164 35.0564C42.9809 35.0564 46.0015 30.9442 46.0015 25.5073C46.0015 20.0705 42.9809 15.9583 39.5164 15.9583Z" fill="#010112"/>
</svg>
