<svg width="65" height="92" viewBox="0 0 65 92" fill="none" xmlns="http://www.w3.org/2000/svg">
<path d="M32.9713 23.2597C36.5786 23.2597 39.5029 20.1736 39.5029 16.3667C39.5029 12.5598 36.5786 9.47363 32.9713 9.47363C29.364 9.47363 26.4397 12.5598 26.4397 16.3667C26.4397 20.1736 29.364 23.2597 32.9713 23.2597Z" fill="black"/>
<path d="M47.0812 2.63117C47.0113 2.16438 46.962 1.93519 46.9441 1.86284C46.6229 0.530625 45.3493 -0.190094 44.1063 0.153461C43.0605 0.442402 42.3648 1.23081 42.3604 2.63117H23.6259C23.6207 1.23081 22.9254 0.364449 21.8796 0.0745743C20.6362 -0.268514 19.3635 0.609512 19.0427 1.94266C19.0248 2.01501 18.9754 2.16438 18.9052 2.63117H6.26492C2.80468 2.63117 0 5.63074 0 9.33143V89.5814C0 90.9034 0.948423 91.9723 2.18404 91.9723C3.42052 91.9723 4.36458 90.9034 4.36458 89.5814V8.72507C4.36458 7.42227 5.35228 6.36546 6.57087 6.36546H18.2514C17.3675 12.9005 16.9712 25.0388 24.8192 29.8276C24.9466 29.9051 25.2207 29.9914 25.2207 29.9914L25.1605 88.225C25.1605 90.2882 26.7994 91.9471 28.7285 91.9471C30.6586 91.9471 32.2979 90.2611 32.2979 88.1983V60.046H33.6073V88.1979C33.6073 90.2606 35.2789 91.9336 37.208 91.9336C39.1372 91.9336 40.7595 90.2606 40.7595 88.1979L40.7416 29.9368C40.7416 29.9368 41.0279 29.906 41.1549 29.828C49.002 25.0388 48.6192 12.9009 47.7354 6.36593H57.152C58.3701 6.36593 59.3583 7.42274 59.3583 8.72554V89.3424C59.3583 90.7965 60.6166 91.9761 61.977 91.9761C63.3366 91.9761 64.5958 90.7974 64.5958 89.3424V9.33143C64.5958 5.63074 61.7911 2.63117 58.3309 2.63117H47.0812ZM40.2571 24.1034H25.7292C21.8578 20.3691 22.1275 11.5001 22.9472 6.36546H43.0387C43.8588 11.5001 44.1289 20.3691 40.2571 24.1034Z" fill="black"/>
</svg>
