<svg width="74" height="63" viewBox="0 0 74 63" fill="none" xmlns="http://www.w3.org/2000/svg">
<path d="M60.5175 47.2151C64.3137 49.6673 66.4822 54.0361 66.2104 58.405C66.0282 61.0686 65.9386 61.1777 63.0473 61.604C61.2403 61.9246 49.8545 62.0304 38.1102 62.0304C24.8277 62.0304 10.915 61.7098 9.92039 61.3892C5.9449 60.216 8.11335 51.6897 13.3552 47.6414C17.4203 44.5515 25.7327 39.862 27.9937 39.3266C31.0671 38.5797 31.4285 36.3424 27.9937 29.0951C27.1812 27.4955 26.2763 22.5946 26.1866 17.4789C26.097 9.16404 27.453 3.51624 33.5969 0.746901C34.8633 0.214862 36.1268 0 37.3006 0C41.3658 0 45.162 2.66361 46.6972 6.60957C48.9553 11.8311 48.0532 25.7937 45.7026 30.8037C42.9906 36.4515 43.2624 38.2659 46.2462 39.2243C48.2354 39.8655 54.3793 43.276 60.5233 47.2185L60.5175 47.2151ZM11.366 44.0195C9.92039 45.1927 8.56439 46.6831 7.48017 48.1769C4.04535 48.1769 1.42586 48.0711 1.15408 47.962C-1.10399 47.3208 0.15949 42.4199 3.14327 40.2884C5.40135 38.5831 10.01 35.9195 11.2764 35.5989C12.9042 35.1726 13.2656 33.9994 11.2764 29.9511C10.8254 29.0985 10.2818 26.3257 10.2818 23.4507C10.1922 18.7612 11.0046 15.5622 14.4394 14.1775C17.3307 12.8985 20.5834 14.4981 21.7572 17.3766C22.9311 20.3607 22.3008 28.0344 21.0344 30.8071C19.5888 34.1119 19.8605 34.9646 21.4854 35.4966C21.8468 35.6023 22.5697 36.0286 23.5643 36.5641C19.5888 38.4842 14.1677 42.0004 11.366 44.0263V44.0195ZM70.819 39.9678C72.9875 41.3524 74.1613 43.6989 73.9821 46.151C73.8925 47.6448 73.8925 47.7506 72.2647 47.962C71.8136 48.0677 69.7348 48.1769 67.0228 48.1769C65.849 46.3659 64.2212 44.6606 62.2349 43.4874C58.5312 40.9295 54.0121 38.1568 50.6698 36.4515C51.5748 36.0252 52.3872 35.7046 52.7487 35.5989C54.4661 35.1726 54.7378 33.9994 52.7487 29.9511C52.3872 29.0985 51.7541 26.3257 51.7541 23.4507C51.6644 18.7612 52.3872 15.5622 55.8192 14.1775C58.8001 12.8985 62.0527 14.4981 63.137 17.3766C64.3108 20.3607 63.8598 28.0344 62.5934 30.8071C61.1478 34.1119 61.327 34.9646 62.8652 35.4966C63.9494 35.9229 67.3842 37.843 70.8162 39.9746L70.819 39.9678Z" fill="black"/>
</svg>
