<svg width="75" height="75" viewBox="0 0 75 75" fill="none" xmlns="http://www.w3.org/2000/svg">
<path d="M68.8954 38.4465H60.6493C58.3539 38.4465 57.2062 38.4465 56.1901 38.9583C55.1739 39.4697 54.4058 40.4345 52.8695 42.3633L49.2793 46.8728C48.0189 48.455 47.3889 49.2464 46.5897 49.2271C45.7905 49.2077 45.1916 48.3872 43.994 46.7462L31.6864 29.8842C30.5697 28.3543 30.0113 27.5893 29.2535 27.5379C28.4958 27.4864 27.8604 28.1703 26.5897 29.5382L21.3453 35.1838C19.8484 36.7949 19.1 37.6008 18.1644 38.0238C17.2287 38.4465 16.1951 38.4465 14.128 38.4465H6.10474" stroke="#010112" stroke-width="1.5" stroke-linecap="round"/>
<path d="M37.5 12.8222L35.6149 14.8729C36.1081 15.4521 36.7887 15.7794 37.5 15.7794C38.2113 15.7794 38.8919 15.4521 39.3851 14.8729L37.5 12.8222ZM4.90695 43.9542C5.67063 45.3405 7.2841 45.7648 8.51072 44.9017C9.73734 44.0386 10.1126 42.2146 9.34894 40.8283L4.90695 43.9542ZM18.4175 53.3201C17.3946 52.1668 15.7381 52.1688 14.7175 53.3252C13.6971 54.4813 13.699 56.3537 14.722 57.507L18.4175 53.3201ZM5.23256 27.1603C5.23256 16.109 9.61821 9.25187 15.1019 6.8942C20.6004 4.53014 28.2603 6.2361 35.6149 14.8729L39.3851 10.7716C31.0427 0.974873 21.2606 -2.08139 13.2415 1.36636C5.20765 4.82046 0 14.3491 0 27.1603H5.23256ZM49.7184 68.0194C54.9241 63.3807 61.1641 57.1616 66.1259 50.2131C71.0323 43.3423 75 35.3292 75 27.1602H69.7674C69.7674 33.2754 66.7245 39.9581 62.0543 46.4986C57.4395 52.9609 51.5369 58.8677 46.4791 63.3748L49.7184 68.0194ZM75 27.1602C75 14.3491 69.7922 4.82042 61.7585 1.36632C53.7394 -2.08135 43.9573 0.974873 35.6149 10.7716L39.3851 14.8729C46.7397 6.2361 54.3994 4.53014 59.8981 6.8942C65.3819 9.25183 69.7674 16.1089 69.7674 27.1602H75ZM25.2817 68.019C29.7269 71.98 32.791 74.8642 37.5 74.8642V68.95C34.951 68.95 33.3687 67.6942 28.5211 63.3748L25.2817 68.019ZM46.4791 63.3748C41.6313 67.6942 40.049 68.95 37.5 68.95V74.8642C42.209 74.8642 45.2731 71.98 49.7184 68.0194L46.4791 63.3748ZM9.34894 40.8283C6.74662 36.104 5.23256 31.4743 5.23256 27.1603H0C0 32.9955 2.02514 38.7225 4.90695 43.9542L9.34894 40.8283ZM28.5211 63.3748C25.3224 60.5245 21.7707 57.1009 18.4175 53.3201L14.722 57.507C18.2563 61.4924 21.9704 65.0686 25.2817 68.019L28.5211 63.3748Z" fill="#010112"/>
</svg>
