<svg width="79" height="79" viewBox="0 0 79 79" fill="none" xmlns="http://www.w3.org/2000/svg">
<path d="M76.3832 55.6222C76.2931 54.6359 76.2067 53.7064 76.2697 53.0041C76.8264 46.7989 75.018 41.2047 71.0408 36.83C66.5292 31.8666 59.4167 28.9029 52.0167 28.9029C41.7121 28.9029 33.0752 34.302 28.9116 43.3463C28.9017 43.3698 28.8894 43.3932 28.8808 43.4167C27.9241 39.895 26.9588 37.4509 26.1861 35.492C24.8802 32.1789 24.179 30.4027 24.7407 26.507C25.7599 26.3961 26.7158 25.9578 27.4649 25.2578C27.5945 25.2664 27.7291 25.2726 27.8649 25.2726C29.2659 25.2726 30.4805 24.7418 31.3582 23.7963L31.4668 23.7975C33.211 23.7975 34.6959 23.0433 35.6846 21.7127C38.0966 21.5102 39.763 20.0561 40.0926 17.8157C40.537 14.8088 39.4853 6.39283 37.2128 3.74386C36.3117 2.69094 35.3168 2.46875 34.6428 2.46875C30.7977 2.46875 24.7839 3.35627 19.6785 4.67581C10.3738 7.08038 8.91968 9.50839 8.68886 11.3562C7.74456 18.981 6.34478 25.7824 5.10793 31.7839C3.35512 40.2863 1.97139 47.0025 2.64042 52.2832C2.90087 54.3434 3.42054 56.111 3.9217 57.8181C4.54876 59.9487 5.19434 62.152 5.41283 65.1651C5.71278 69.3534 10.2355 71.7555 17.822 71.7555C20.7956 71.7555 23.8285 71.3679 26.317 70.6778C29.3683 72.1393 39.4371 76.5312 50.191 76.5312C53.8892 76.5312 57.3343 76.0029 60.4351 74.9611C76.3005 69.6212 77.0127 62.4791 76.3832 55.6222ZM5.09065 51.9709C4.02168 43.5364 8.87648 29.9398 11.1403 11.6636C11.5242 8.5715 25.5986 5.33497 33.3406 4.98564C33.0258 5.23869 32.7999 5.57073 32.7703 5.92377C33.6985 5.50284 35.0847 5.36706 35.7649 6.7545C35.8007 6.52244 35.8155 6.3163 35.8155 6.12373C36.171 6.81992 36.4956 7.76916 36.7697 8.85047C37.114 10.4058 37.3066 12.0006 37.3103 13.6016C37.3128 14.7137 37.5547 18.6786 35.7241 18.1626C34.5959 17.8441 34.5675 16.8035 34.2454 15.7321C33.7491 14.0571 32.8752 12.1265 32.9814 10.3465C32.5506 12.0932 33.0628 14.1891 33.2529 15.9555C33.3615 16.9838 34.0725 19.7623 32.8135 20.1413C32.1173 20.3548 31.31 19.8648 30.7336 19.5056C30.5138 19.3673 30.3497 18.3564 30.2694 18.0725C29.7732 16.337 28.8845 14.341 28.998 12.5178C28.5635 14.162 28.9869 16.1432 29.1252 17.8281C29.2103 18.8724 29.7374 21.1362 28.5598 21.662C27.2267 22.3595 27.0218 20.6684 26.7749 19.7821C26.317 18.1367 25.5726 16.337 25.5924 14.6113C25.127 16.7134 25.6739 19.1748 25.764 21.3275C25.8121 22.3965 23.5717 23.3618 22.736 22.6903C21.4264 21.6374 21.2054 19.1723 21.0573 17.5787C21.4498 18.1145 22.0127 18.8069 22.7274 18.7366C22.1201 18.0441 21.8621 16.8566 21.456 16.0148C21.0832 15.3235 20.3265 13.6781 19.4366 13.651C19.5736 13.946 20.3241 15.979 20.208 16.1938C19.8464 16.8665 19.4946 17.5503 19.0922 18.1947C18.7502 18.7366 17.7578 20.4635 16.9567 19.9413C16.0914 19.3809 15.5483 16.8714 15.5483 16.8714C15.5483 16.8714 15.5804 20.0006 16.6987 20.7252C17.7578 21.4139 18.965 20.3277 19.6662 19.5525C19.8056 21.0399 20.208 22.7841 21.1079 23.9345C18.4639 35.6599 23.331 35.5426 26.612 51.2167C26.612 51.2167 28.7746 48.0283 30.6657 43.9215C34.7922 34.9575 43.3995 30.9631 51.6969 30.9631C59.9253 30.9631 68.7363 35.1698 71.9382 42.4427C72.9961 44.8448 73.259 47.716 72.9726 50.8785C72.5048 56.0295 77.588 64.4097 58.6267 70.7062C43.5809 75.7017 25.0752 66.123 25.0752 66.123C19.9994 67.782 8.12968 68.5066 7.87911 64.9911C7.46559 59.2327 5.63748 56.3011 5.09065 51.9709Z" fill="#010112"/>
<path d="M42.2712 66.1252C45.5756 67.3374 49.1664 67.667 52.6301 67.2547C56.0962 66.835 59.4883 65.7031 62.4434 63.7947C63.9098 62.8344 65.2738 61.679 66.3711 60.2928C67.4438 58.9017 68.3128 57.2945 68.514 55.5898C66.381 58.1993 63.6679 59.6361 60.872 60.7779C58.0613 61.8889 55.105 62.5813 52.1252 62.9381C49.143 63.2825 46.1323 63.2862 43.1501 62.8233C40.0387 62.339 37.0394 61.3005 34.2947 59.7571C35.9784 62.7221 38.9902 64.9155 42.2712 66.1252Z" fill="#010112"/>
<path d="M31.5581 8.45594C32.0815 5.06265 28.6795 6.17975 28.561 7.62644C29.4893 7.20429 30.878 7.06974 31.5581 8.45594Z" fill="#010112"/>
<path d="M28.1945 10.3316C28.7192 6.93712 25.3185 8.05176 25.2 9.50338C26.1282 9.07752 27.5156 8.94421 28.1945 10.3316Z" fill="#010112"/>
<path d="M24.3098 12.2902C24.8344 8.89694 21.4337 10.0128 21.3152 11.462C22.2447 11.0361 23.6296 10.904 24.3098 12.2902Z" fill="#010112"/>
</svg>
