<svg width="70" height="90" viewBox="0 0 70 90" fill="none" xmlns="http://www.w3.org/2000/svg">
<path d="M5.81982 89.4024C5.82347 80.5689 7.42592 71.8583 10.4998 63.9629C11.5198 61.1019 12.6298 58.4342 13.4998 55.7666C15.8891 50.2085 17.1965 43.9864 17.3098 37.6341C16.9874 24.9759 15.0411 12.4737 11.5498 0.634766" stroke="#010112" stroke-width="4.48" stroke-miterlimit="10"/>
<path d="M63.2097 89.4024C63.2419 80.7228 61.7227 72.1504 58.7697 64.3495C57.6897 61.4112 56.5797 58.6662 55.5597 55.9599C53.16 50.4053 51.8423 44.183 51.7197 37.8275C52.0178 25.1028 53.9647 12.532 57.4797 0.634766" stroke="#010112" stroke-width="4.48" stroke-miterlimit="10"/>
<path d="M58.7698 64.3495L39.6298 83.6805C38.1724 85.1425 36.3766 85.9321 34.5298 85.9228C32.656 85.9214 30.8376 85.104 29.3698 83.6031L10.4998 63.9629C11.5198 61.1019 12.6298 58.4343 13.4998 55.7666C27.2778 60.3097 41.7217 60.3097 55.4998 55.7666C56.5798 58.4729 57.6898 61.2179 58.7698 64.3495Z" stroke="#010112" stroke-width="4.48" stroke-miterlimit="10"/>
<path d="M34.4998 30.2119V37.635" stroke="#010112" stroke-width="4.48" stroke-miterlimit="10"/>
<path d="M1.76978 28.7031L8.69977 37.634L1.76978 46.5649" stroke="#010112" stroke-width="4.48" stroke-miterlimit="10"/>
<path d="M67.7698 46.5649L60.8398 37.634L67.7698 28.7031" stroke="#010112" stroke-width="4.48" stroke-miterlimit="10"/>
</svg>
