<svg width="91" height="50" viewBox="0 0 91 50" fill="none" xmlns="http://www.w3.org/2000/svg">
<path d="M25.1847 0H14.0548C12.5462 0 11.323 1.49451 11.323 3.33605V46.3731C11.323 48.2144 12.5462 49.7091 14.0548 49.7091H25.1849C26.6936 49.7091 27.9168 48.2144 27.9168 46.3731V3.33605C27.9168 1.49451 26.6935 0 25.1847 0Z" fill="#010112"/>
<path d="M5.75397 10.4648H2.27553C1.01948 10.4648 0 11.7105 0 13.2452V36.4653C0 38.0002 1.01948 39.2456 2.27553 39.2456H5.75397C7.01002 39.2456 8.02951 38 8.02951 36.4653V13.2452C8.02951 11.7105 7.01002 10.4648 5.75397 10.4648Z" fill="#010112"/>
<path d="M59.4183 18.9688H31.5815V30.7416H59.4183V18.9688Z" fill="#010112"/>
<path d="M76.9451 0H65.8152C64.3066 0 63.0833 1.49451 63.0833 3.33605V46.3731C63.0833 48.2144 64.3064 49.7091 65.8152 49.7091H76.9451C78.4537 49.7091 79.6771 48.2144 79.6771 46.3731V3.33605C79.6771 1.49451 78.4539 0 76.9451 0Z" fill="#010112"/>
<path d="M88.7245 10.4648H85.2462C83.99 10.4648 82.9707 11.7105 82.9707 13.2452V36.4653C82.9707 38.0002 83.9902 39.2456 85.2462 39.2456H88.7245C89.9807 39.2456 91 38 91 36.4653V13.2452C91 11.7105 89.9805 10.4648 88.7245 10.4648Z" fill="#010112"/>
</svg>
