<?xml version="1.0" encoding="UTF-8"?>
<svg id="Calque_1" data-name="Calque 1" xmlns="http://www.w3.org/2000/svg" viewBox="0 0 1567.29 1433.43">
  <defs>
    <style>
      .cls-1 {
        fill: #f7560f;
      }

      .cls-2 {
        fill: #010112;
      }
    </style>
  </defs>
  <g>
    <path class="cls-2" d="M1502.66,986.18l-42.04,296.13H181.06c-4.57,0-14.62-13.71-13.7-21.02l18.27-130.7,8.22-57.58L347.41,0h385.69l-137.1,966.07h894.78c3.65,0,13.7,13.71,11.87,20.11Z"/>
    <path class="cls-2" d="M1502.66,986.18l-42.04,296.13H181.06c-7.84-.15-15.61-8.5-13.7-21.02l18.27-130.7,8.22-57.58L347.41,0h385.69l-137.1,966.07h894.78c3.65,0,13.7,13.71,11.87,20.11Z"/>
    <path class="cls-1" d="M1567.29,473.74c0,133.44-80.43,244.94-192.85,296.13-41.14,19.2-86.83,28.33-134.36,28.33s-90.48-9.14-127.95-28.33c-89.57-42.04-146.24-130.7-146.24-242.2,0-180.06,144.41-320.81,328.12-320.81,161.77,0,273.28,109.68,273.28,266.88Z"/>
  </g>
  <path class="cls-2" d="M1323.87,1433.43H44.76c-7.35,0-22.54-4.54-33.48-16.39-9.36-10.14-12.95-19.52-10.56-38.94l26.53-188.88L180.85,114.44h61.34L63.28,1372.25h1269.38l-8.79,61.19Z"/>
</svg>