<?xml version="1.0" encoding="UTF-8"?>
<svg id="Calque_1" data-name="Calque 1" xmlns="http://www.w3.org/2000/svg" viewBox="0 0 3075.61 1729.28">
  <defs>
    <style>
      .cls-1 {
        fill: #f7560f;
      }

      .cls-2 {
        fill: #010112;
      }
    </style>
  </defs>
  <g>
    <path class="cls-2" d="M794.04,1491.71h-299.51c26.84,55.12,105.81,48.6,154.42,29.6,5.18-2.02,16.87-10.6,17.92-10.6h120.04c-10.82,40.4-67.37,68.97-104.65,81.88-98.57,34.13-311.4,30.63-299.42-118.65,11.11-138.45,184.81-168.74,295.3-147.87,91.15,17.22,131.21,72.74,115.9,165.64ZM675.19,1439.46c-13.51-57.27-110.68-49.49-149.03-24.22-7.66,5.05-19.27,15.53-22.12,24.22h171.15Z"/>
    <path class="cls-1" d="M2458,1242.34l-11.87,85.52-255.24.29c-2.17.44-2.73,1.85-3.42,3.71-1.92,5.13-5.28,31.6-5.33,37.66-.02,2.66,1.25,8.2,3.68,8.2h231.77l-12.14,85.24-235.24,1.29-22.43,131.97h-103.4l47.54-353.88h366.07Z"/>
    <path class="cls-2" d="M1772.21,1332.59l63.02,152.01,7.19-4.15,99.75-147.86h118.85c-5.98,13.1-15.15,25.42-23.24,37.34-51.1,75.23-101.83,151.54-154.5,225.64-27.3,38.41-48.2,70.01-87.74,97.58-64.42,44.91-120.94,40.46-195.53,26.44l10.55-78.28,4.53-2.25c56.72,11.16,117.28,17.61,145.91-43.61l-104.07-262.87h115.29Z"/>
    <path class="cls-2" d="M1093.55,1598.59c2.8-44.05,15.07-87.37,14.01-131.56-3.03-74.42-124.17-62.66-161.14-26.12-29.06,28.72-25.92,106.32-34.11,146.42-.85,4.15-2.03,8.32-5.37,11.26h-103.4l39.22-266h103.4l-4.73,49.88c25.74-26.64,53.98-46.59,90.68-55.44,87.27-21.02,195.05,5.85,189.91,113.74-1.95,41.01-12.18,103.05-19.36,144.54-.84,4.83-1.88,9.82-5.72,13.29h-103.4Z"/>
    <path class="cls-2" d="M1519.05,1598.59c-.65-43.41,32.54-134.86-1.17-168.64-30.07-30.13-116.82-17.83-145.95,10.96-33.73,33.33-21.47,115.28-39.48,157.68h-103.4l39.22-266h103.4l-4.73,49.88c26.07-26.91,53.54-46.52,90.68-55.44,90.52-21.73,196.79,7.48,189.76,118.34-2.56,40.4-12.16,99.17-19.21,139.93-.84,4.83-1.88,9.82-5.72,13.29h-103.4Z"/>
    <path class="cls-1" d="M3072.48,1242.34l3.12,5.37-13.66,81.48-178.11,1.36-38.37,268.05h-103.4c-1.01,0-4-3.72-3.45-5.7l37.92-262.68h-174.72c-.86,0-3.81-2.5-5.63-2.72,3.3-25.32,4.64-54.09,9.21-79.2.49-2.69,1.13-4.45,3.54-5.96h463.53Z"/>
    <path class="cls-2" d="M156.98,1242.34l-38.03,268.38h248.41c1.02,0,3.99,3.71,3.44,5.69l-11.76,82.18H3.66c-1.18,0-3.91-3.91-3.64-5.91l49.99-350.35h106.97Z"/>
    <polygon class="cls-1" points="2581.61 1242.34 2530.51 1598.59 2428.29 1598.59 2474.64 1242.34 2581.61 1242.34"/>
  </g>
  <g>
    <g>
      <path class="cls-2" d="M1990.17,620.64l-26.46,186.36h-805.27c-2.88,0-9.2-8.63-8.62-13.23l11.5-82.26,5.17-36.23L1263.13,0h242.73l-86.28,607.98h563.12c2.3,0,8.62,8.63,7.47,12.66Z"/>
      <path class="cls-2" d="M1990.17,620.64l-26.46,186.36h-805.27c-4.93-.1-9.83-5.35-8.62-13.23l11.5-82.26,5.17-36.23L1263.13,0h242.73l-86.28,607.98h563.12c2.3,0,8.62,8.63,7.47,12.66Z"/>
      <path class="cls-1" d="M2030.84,298.14c0,83.98-50.62,154.15-121.37,186.36-25.89,12.08-54.65,17.83-84.56,17.83s-56.94-5.75-80.52-17.83c-56.37-26.46-92.04-82.25-92.04-152.42,0-113.32,90.89-201.89,206.5-201.89,101.81,0,171.98,69.02,171.98,167.96Z"/>
    </g>
    <path class="cls-2" d="M1877.65,902.11h-804.99c-4.63,0-14.19-2.86-21.07-10.32-5.89-6.38-8.15-12.28-6.64-24.5l16.7-118.87,96.67-676.4h38.6l-112.6,791.58h798.86l-5.53,38.51Z"/>
  </g>
</svg>