<?xml version="1.0" encoding="UTF-8"?>
<svg id="Calque_1" data-name="Calque 1" xmlns="http://www.w3.org/2000/svg" viewBox="0 0 2998.01 623.29">
  <defs>
    <style>
      .cls-1 {
        fill: #9eff99;
      }

      .cls-2 {
        fill: #f7f2e2;
      }
    </style>
  </defs>
  <g>
    <path class="cls-2" d="M1421.61,407.05h-206.94c18.55,38.08,73.11,33.58,106.7,20.45,3.58-1.4,11.66-7.32,12.38-7.32h82.94c-7.48,27.91-46.55,47.66-72.31,56.57-68.11,23.58-215.15,21.16-206.88-81.98,7.68-95.66,127.69-116.59,204.03-102.17,62.98,11.9,90.65,50.26,80.08,114.45ZM1339.49,370.95c-9.34-39.57-76.47-34.19-102.97-16.73-5.3,3.49-13.32,10.73-15.28,16.73h118.25Z"/>
    <path class="cls-1" d="M2571.29,234.75l-8.2,59.09-176.35.2c-1.5.3-1.88,1.28-2.36,2.56-1.32,3.54-3.65,21.84-3.68,26.02-.01,1.84.86,5.66,2.55,5.66h160.13l-8.39,58.89-162.53.89-15.49,91.18h-71.44l32.85-244.51h252.93Z"/>
    <path class="cls-2" d="M2097.46,297.11l43.54,105.03,4.96-2.87,68.92-102.16h82.12c-4.13,9.05-10.47,17.56-16.06,25.8-35.3,51.98-70.36,104.71-106.75,155.9-18.86,26.54-33.3,48.37-60.63,67.42-44.51,31.03-83.56,27.96-135.1,18.27l7.29-54.08,3.13-1.55c39.19,7.71,81.03,12.17,100.81-30.13l-71.91-181.63h79.66Z"/>
    <path class="cls-2" d="M1628.55,480.9c1.93-30.43,10.41-60.36,9.68-90.9-2.09-51.42-85.79-43.29-111.33-18.05-20.08,19.84-17.91,73.46-23.57,101.17-.59,2.87-1.4,5.75-3.71,7.78h-71.44l27.1-183.79h71.44l-3.27,34.46c17.79-18.4,37.29-32.19,62.65-38.3,60.3-14.53,134.77,4.04,131.21,78.59-1.35,28.33-8.41,71.2-13.37,99.87-.58,3.33-1.3,6.79-3.95,9.18h-71.44Z"/>
    <path class="cls-2" d="M1922.54,480.9c-.45-29.99,22.49-93.18-.81-116.52-20.77-20.82-80.71-12.32-100.84,7.57-23.3,23.03-14.84,79.65-27.28,108.95h-71.44l27.1-183.79h71.44l-3.27,34.46c18.01-18.59,36.99-32.14,62.65-38.3,62.55-15.02,135.97,5.17,131.11,81.77-1.77,27.92-8.4,68.52-13.27,96.68-.58,3.33-1.3,6.79-3.95,9.18h-71.44Z"/>
    <path class="cls-1" d="M2995.85,234.75l2.16,3.71-9.44,56.29-123.06.94-26.51,185.2h-71.44c-.7,0-2.76-2.57-2.38-3.94l26.2-181.49h-120.72c-.59,0-2.63-1.72-3.89-1.88,2.28-17.5,3.2-37.37,6.37-54.72.34-1.86.78-3.08,2.45-4.12h320.27Z"/>
    <path class="cls-2" d="M981.45,234.75l-26.28,185.43h171.63c.7,0,2.76,2.57,2.38,3.93l-8.13,56.78h-245.54c-.82,0-2.7-2.7-2.51-4.08l34.54-242.06h73.91Z"/>
    <polygon class="cls-1" points="2656.69 234.75 2621.38 480.9 2550.76 480.9 2582.79 234.75 2656.69 234.75"/>
  </g>
  <g>
    <g>
      <path class="cls-1" d="M653.4,428.82l-18.28,128.76H78.73c-1.99,0-6.36-5.96-5.96-9.14l7.95-56.83,3.58-25.04L151.06,0h167.71l-59.61,420.07h389.07c1.59,0,5.96,5.96,5.16,8.74Z"/>
      <path class="cls-1" d="M653.4,428.82l-18.28,128.76H78.73c-3.41-.07-6.79-3.7-5.96-9.14l7.95-56.83,3.58-25.04L151.06,0h167.71l-59.61,420.07h389.07c1.59,0,5.96,5.96,5.16,8.74Z"/>
      <path class="cls-2" d="M681.5,205.99c0,58.02-34.97,106.51-83.85,128.76-17.89,8.35-37.76,12.32-58.42,12.32s-39.34-3.97-55.63-12.32c-38.95-18.28-63.59-56.83-63.59-105.31,0-78.29,62.8-139.49,142.68-139.49,70.34,0,118.83,47.69,118.83,116.05Z"/>
    </g>
    <path class="cls-1" d="M575.65,623.29H19.46c-3.2,0-9.8-1.98-14.56-7.13-4.07-4.41-5.63-8.49-4.59-16.93l11.54-82.13L78.64,49.76h26.67L27.52,596.69h551.96l-3.82,26.61Z"/>
  </g>
</svg>